<?xml version="1.0" encoding="utf-8"?>
<!-- Generator: Adobe Illustrator 23.0.1, SVG Export Plug-In . SVG Version: 6.00 Build 0)  -->
<svg version="1.1" id="图层_1" xmlns="http://www.w3.org/2000/svg" xmlns:xlink="http://www.w3.org/1999/xlink" x="0px" y="0px"
	 viewBox="0 0 24 24" style="enable-background:new 0 0 24 24;" xml:space="preserve">
<path d="M23,6.8L22.3,6v2.1H1.8V6L1,6.8c-0.7,0.8-1.2,1-1,2.6C0.4,11,1.8,20,2,21.2c0.2,1.3,1.4,1.3,1.5,1.3h17.1
	c0.1,0,1.3,0,1.5-1.3C22.2,20,23.6,11,23.9,9.4C24.2,7.7,23.7,7.5,23,6.8z M16.9,13.8c0,0,0,1.3-1.2,1.3H8.3c-1.2,0-1.2-1.3-1.2-1.3
	v-1.8c0-0.5,0.4-0.9,0.9-0.9c0.5,0,0.9,0.4,0.9,0.9v1.2h6.3v-1.2c0-0.5,0.4-0.9,0.9-0.9c0.5,0,0.8,0.4,0.8,0.9V13.8z M19.3,4.1H4.7
	c0,0-1.2,0-1.2,1.3v1.3h17.1V5.4C20.5,4.1,19.3,4.1,19.3,4.1z M18.1,2.8H5.9c0-1.3,1.2-1.3,1.2-1.3h9.8C16.9,1.5,18.1,1.5,18.1,2.8z
	"/>
</svg>
