<?xml version="1.0" encoding="utf-8"?>
<!-- Generator: Adobe Illustrator 23.0.1, SVG Export Plug-In . SVG Version: 6.00 Build 0)  -->
<svg version="1.1" id="图层_1" xmlns="http://www.w3.org/2000/svg" xmlns:xlink="http://www.w3.org/1999/xlink" x="0px" y="0px"
	 viewBox="0 0 24 24" style="enable-background:new 0 0 24 24;" xml:space="preserve">
<path d="M21,19.2v-2.6h-3.4v-2.3H21v-3.5h-3.4V8.5H21V5.1h-3.4V2.7H21V1.6c0-0.6,0.5-1.1,1.1-1.1h0c0.6,0,1.1,0.5,1.1,1.1v19.1
	c0.4,0.3,0.7,0.7,0.8,0.9l-1.6,1.4c-0.3-0.3-0.6-0.7-1-1c-0.7-0.6-1.3-0.9-1.8-0.9c-0.3,0-0.5,0.1-1,0.7c-0.9,1.1-1.5,1.6-2.7,1.6
	S13.9,23,13,21.9c-0.5-0.6-0.6-0.7-1-0.7c-0.3,0-0.5,0.1-1,0.7c-0.9,1.1-1.5,1.6-2.7,1.6c-1.2,0-1.8-0.5-2.7-1.6
	c-0.5-0.6-0.6-0.7-0.9-0.7c-0.6,0-1.1,0.2-1.5,0.5c-0.3,0.2-0.4,0.4-0.6,0.5l-0.1,0.2l-0.8,0.7L0,21.7c0.3-0.3,0.5-0.6,0.8-0.8
	c0.3-0.3,0.5-0.6,1-0.9c0.8-0.6,1.8-1,2.8-1c1.2,0,1.8,0.5,2.7,1.6c0.5,0.6,0.7,0.7,1,0.7c0.3,0,0.5-0.1,1-0.7
	c0.9-1.1,1.5-1.6,2.7-1.6c1.2,0,1.8,0.5,2.7,1.6c0.5,0.6,0.7,0.7,1,0.7c0.3,0,0.5-0.1,1-0.7c0.9-1.1,1.5-1.6,2.7-1.6
	C19.9,18.9,20.5,19.1,21,19.2L21,19.2z M7.7,17.5c-3,0-5.5-2.6-5.5-5.8c0-3.9,5-9.2,5.5-9.2c0.4,0,5.5,5.3,5.5,9.2
	C13.2,14.9,10.7,17.5,7.7,17.5L7.7,17.5z M7.7,17.5 M21,19.2v-2.6h-3.4v-2.3H21v-3.5h-3.4V8.5H21V5.1h-3.4V2.7H21V1.6
	c0-0.6,0.5-1.1,1.1-1.1h0c0.6,0,1.1,0.5,1.1,1.1v19.1c0.4,0.3,0.7,0.7,0.8,0.9l-1.6,1.4c-0.3-0.3-0.6-0.7-1-1
	c-0.7-0.6-1.3-0.9-1.8-0.9c-0.3,0-0.5,0.1-1,0.7c-0.9,1.1-1.5,1.6-2.7,1.6S13.9,23,13,21.9c-0.5-0.6-0.6-0.7-1-0.7
	c-0.3,0-0.5,0.1-1,0.7c-0.9,1.1-1.5,1.6-2.7,1.6c-1.2,0-1.8-0.5-2.7-1.6c-0.5-0.6-0.6-0.7-0.9-0.7c-0.6,0-1.1,0.2-1.5,0.5
	c-0.3,0.2-0.4,0.4-0.6,0.5l-0.1,0.2l-0.8,0.7L0,21.7c0.3-0.3,0.5-0.6,0.8-0.8c0.3-0.3,0.5-0.6,1-0.9c0.8-0.6,1.8-1,2.8-1
	c1.2,0,1.8,0.5,2.7,1.6c0.5,0.6,0.7,0.7,1,0.7c0.3,0,0.5-0.1,1-0.7c0.9-1.1,1.5-1.6,2.7-1.6c1.2,0,1.8,0.5,2.7,1.6
	c0.5,0.6,0.7,0.7,1,0.7c0.3,0,0.5-0.1,1-0.7c0.9-1.1,1.5-1.6,2.7-1.6C19.9,18.9,20.5,19.1,21,19.2L21,19.2z M7.7,17.5
	c-3,0-5.5-2.6-5.5-5.8c0-3.9,5-9.2,5.5-9.2c0.4,0,5.5,5.3,5.5,9.2C13.2,14.9,10.7,17.5,7.7,17.5L7.7,17.5z M7.7,17.5"/>
</svg>
