<?xml version="1.0" encoding="utf-8"?>
<!-- Generator: Adobe Illustrator 23.0.1, SVG Export Plug-In . SVG Version: 6.00 Build 0)  -->
<svg version="1.1" id="图层_1" xmlns="http://www.w3.org/2000/svg" xmlns:xlink="http://www.w3.org/1999/xlink" x="0px" y="0px"
	 viewBox="0 0 24 24" style="enable-background:new 0 0 24 24;" xml:space="preserve">
<path d="M0.1,4.7l2.7-3.4c0.4-0.5,1-0.8,1.6-0.8H10c0.3,0,0.5,0.2,0.5,0.5v4c0,0.3-0.2,0.5-0.5,0.5H0.5C0.1,5.5-0.2,5,0.1,4.7z
	 M14,5.5h9.5c0.4,0,0.7-0.5,0.4-0.8l-2.7-3.4c-0.4-0.5-1-0.8-1.6-0.8H14c-0.3,0-0.5,0.2-0.5,0.5v4C13.5,5.3,13.8,5.5,14,5.5z
	 M24,9.5v10c0,1.7-1.3,3-3,3H3c-1.7,0-3-1.3-3-3v-10c0-1.1,0.9-2,2-2h20C23.1,7.5,24,8.4,24,9.5z M17.8,11.4L16.2,13
	c-0.5,0.4-1.2,0.4-1.6-0.1c-0.4-0.5-0.4-1.1,0-1.6l1.6-1.6c-1.1-0.5-2.5-0.2-3.3,0.7c-0.9,0.9-1.1,2.2-0.7,3.3l-1.1,1.1L8.2,12
	l0.2-0.4l-1.5-1l-1,1l1,1.5l0.5-0.2l2.8,2.8l-3.3,3.3c-0.2,0.2-0.2,0.5,0,0.8l0,0l1,1c0.2,0.2,0.6,0.2,0.8,0l3.3-3.3l0.5,0.5
	L12.4,18c-0.2,0.1-0.2,0.4-0.1,0.6c0,0,0,0,0,0.1l2.2,2.2c0.2,0.2,0.5,0.2,0.7,0l1-1c0.2-0.2,0.2-0.5,0-0.7l-2.2-2.2
	c-0.2-0.2-0.5-0.1-0.7,0.1l-0.1,0.1l-0.5-0.5l1.2-1.2c1.1,0.4,2.3,0.1,3.1-0.7C18,13.8,18.3,12.5,17.8,11.4z"/>
</svg>
