<?xml version="1.0" encoding="utf-8"?>
<!-- Generator: Adobe Illustrator 23.0.1, SVG Export Plug-In . SVG Version: 6.00 Build 0)  -->
<svg version="1.1" id="图层_1" xmlns="http://www.w3.org/2000/svg" xmlns:xlink="http://www.w3.org/1999/xlink" x="0px" y="0px"
	 viewBox="0 0 24 24" style="enable-background:new 0 0 24 24;" xml:space="preserve">
<path d="M21.8,3.4L21.8,3.4C21.5,3.1,21.1,3,20.7,3h-0.1c0,0-0.3,0-0.7,0c-1.1,0-2.1-0.1-3.2-0.3c-1.4-0.6-2.8-1.4-3.9-2.4
	C12.6,0.1,12.3,0,12,0c-0.3,0-0.6,0.1-0.9,0.3C10,1.3,8.7,2.2,7.2,2.7C6.2,2.9,5.1,3,4,3C3.6,3,3.4,3,3.4,3H3.3
	C2.9,3,2.5,3.1,2.2,3.4C1.8,3.7,1.7,4.1,1.7,4.5v3.8c0,13.9,9.6,15.7,10,15.7c0.2,0,0.4,0,0.6,0c0.4-0.1,10.1-1.9,10.1-15.7V4.5
	C22.3,4,22.1,3.6,21.8,3.4L21.8,3.4z M6.9,15.4c0.6-0.9,0.9-2.1,0.8-3.7V7.5c3.2,0,5.9-0.2,8-0.4l0.6,1.4c-0.4,0.1-1,0.1-1.8,0.2
	c-0.4,0-0.7,0.1-0.8,0.1v0.6h2.9v1.3h-2.9v0.5h2.4v3.2h-1.5v-1.9h-3.3v1.9H9.7v-3.2h2.3v-0.5H9.5V9.3h2.6V8.8
	c-0.9,0-1.8,0.1-2.8,0.1v2.8c0.1,2.2-0.3,3.8-1.2,4.8C7.6,16,7.2,15.6,6.9,15.4L6.9,15.4z M15.8,16.5c-1-0.6-2-1-2.9-1.4
	c-0.7,0.6-1.7,1.1-3.2,1.4c-0.1-0.1-0.1-0.2-0.2-0.4c-0.2-0.4-0.4-0.7-0.6-0.9c2.1-0.4,3.1-1,3.2-1.8c0.1-0.2,0.1-0.5,0.1-0.8h1.6
	c0,0.2,0,0.5-0.1,0.8c0,0.2-0.1,0.4-0.1,0.6c0.9,0.3,1.9,0.7,3.1,1.2L15.8,16.5z M15.8,16.5"/>
</svg>
