<?xml version="1.0" encoding="utf-8"?>
<!-- Generator: Adobe Illustrator 23.0.1, SVG Export Plug-In . SVG Version: 6.00 Build 0)  -->
<svg version="1.1" id="图层_1" xmlns="http://www.w3.org/2000/svg" xmlns:xlink="http://www.w3.org/1999/xlink" x="0px" y="0px"
	 viewBox="0 0 24 24" style="enable-background:new 0 0 24 24;" xml:space="preserve">
<path d="M14,17.1l0.5-0.6c-0.3-0.4-0.5-0.8-0.7-1.2L13.7,15v-0.1c-0.2-1-0.1-2.2,0.4-3.1c0.6-1.1,1.5-1.9,2.7-2.2
	c0.4-0.1,0.9-0.2,1.4-0.2c0.3,0,0.5,0,0.8,0.1V5c0-2.2-1.8-4-4-4H4C1.8,1,0,2.8,0,5v14c0,2.2,1.8,4,4,4h6.8c-0.2-0.5-0.3-1-0.3-1.5
	v-0.9C10.5,18.7,12.1,17.2,14,17.1z M3,6h5c0.5,0,1,0.5,1,1S8.5,8,8,8H3C2.5,8,2,7.5,2,7S2.5,6,3,6z M3,10h7c0.5,0,1,0.5,1,1
	s-0.5,1-1,1H3c-0.5,0-1-0.5-1-1S2.5,10,3,10z M10,16H3c-0.5,0-1-0.5-1-1s0.5-1,1-1h7c0.5,0,1,0.5,1,1S10.5,16,10,16z M24,20.6v0.9
	c0,0.8-0.7,1.5-1.5,1.5H14c-0.8,0-1.5-0.7-1.5-1.5v-0.9c0-0.8,0.7-1.5,1.5-1.5h0.9l2.5-2.9c-0.8-0.3-1.4-0.9-1.7-1.6v0
	c-0.4-1.3,0.3-2.8,1.7-3.2c0.3-0.1,0.6-0.1,0.8-0.1c1.1,0,2.1,0.7,2.5,1.7v0c0.4,1.3-0.3,2.8-1.7,3.2l2.5,2.9h0.9
	C23.3,19.1,24,19.8,24,20.6z"/>
</svg>
