<?xml version="1.0" encoding="utf-8"?>
<!-- Generator: Adobe Illustrator 23.0.1, SVG Export Plug-In . SVG Version: 6.00 Build 0)  -->
<svg version="1.1" id="图层_1" xmlns="http://www.w3.org/2000/svg" xmlns:xlink="http://www.w3.org/1999/xlink" x="0px" y="0px"
	 viewBox="0 0 24 24" style="enable-background:new 0 0 24 24;" xml:space="preserve">
<path d="M11,5v4c0,1.1-0.9,2-2,2H5c-2.8,0-5-2.2-5-5V5c0-2.8,2.2-5,5-5h1C8.8,0,11,2.2,11,5z M19,0h-1c-2.8,0-5,2.2-5,5v4
	c0,1.1,0.9,2,2,2h4c2.8,0,5-2.2,5-5V5C24,2.2,21.8,0,19,0z M9,13H5c-2.8,0-5,2.2-5,5v1c0,2.8,2.2,5,5,5h1c2.8,0,5-2.2,5-5v-4
	C11,13.9,10.1,13,9,13z M19,13h-4c-1.1,0-2,0.9-2,2v4c0,2.8,2.2,5,5,5h1c2.8,0,5-2.2,5-5v-1C24,15.2,21.8,13,19,13z"/>
</svg>
